<svg xmlns="http://www.w3.org/2000/svg" viewBox="0 0 720 520">
<defs>
 <linearGradient id="bg" x1="0" x2="1"><stop stop-color="#edf6ff"/><stop offset="1" stop-color="#ffffff"/></linearGradient>
 <linearGradient id="b" x1="0" x2="1"><stop stop-color="#173d78"/><stop offset="1" stop-color="#2f81d4"/></linearGradient>
 <filter id="s"><feDropShadow dx="0" dy="18" stdDeviation="16" flood-opacity=".18"/></filter>
</defs>
<rect width="720" height="520" rx="34" fill="url(#bg)"/>
<circle cx="588" cy="108" r="55" fill="#7ec5ff" opacity=".38"/>
<ellipse cx="360" cy="448" rx="162" ry="28" fill="#153c6b" opacity=".12"/>
<g filter="url(#s)">
 <rect x="250" y="102" width="220" height="316" rx="36" fill="#fff"/>
 <rect x="278" y="70" width="164" height="70" rx="20" fill="#183c70"/>
 <rect x="268" y="154" width="184" height="214" rx="15" fill="url(#b)"/>
 <path d="M315 215c35-42 75-42 110 0-25-8-43-5-55 10-12-15-30-18-55-10Z" fill="#d7ecff"/>
 <path d="M337 244h66M349 265h42" stroke="#d7ecff" stroke-width="10" stroke-linecap="round"/>
 <text x="360" y="316" text-anchor="middle" font-family="Arial" font-size="31" font-weight="700" fill="#fff">NITRIC BOOST</text>
 <text x="360" y="342" text-anchor="middle" font-family="Arial" font-size="13" fill="#deeeff">MEN'S WELLNESS</text>
 <rect x="305" y="382" width="110" height="16" rx="8" fill="#d9e0e9"/>
</g>
<text x="360" y="487" text-anchor="middle" font-family="Arial" font-size="15" fill="#617080">Editorial product illustration</text>
</svg>