<svg xmlns="http://www.w3.org/2000/svg" viewBox="0 0 900 560">
<defs><linearGradient id="bg" x1="0" x2="1"><stop stop-color="#d7f6ef"/><stop offset="1" stop-color="#f7fffd"/></linearGradient></defs>
<rect width="900" height="560" rx="36" fill="url(#bg)"/>
<rect x="170" y="85" width="560" height="370" rx="26" fill="#fff" opacity=".94"/>
<rect x="220" y="140" width="210" height="22" rx="11" fill="#0f7f74"/>
<rect x="220" y="185" width="390" height="14" rx="7" fill="#c9ddd9"/>
<rect x="220" y="215" width="320" height="14" rx="7" fill="#d8e7e4"/>
<rect x="220" y="275" width="130" height="120" rx="18" fill="#e9faf6"/>
<rect x="375" y="275" width="130" height="120" rx="18" fill="#e9faf6"/>
<rect x="530" y="275" width="130" height="120" rx="18" fill="#e9faf6"/>
<circle cx="285" cy="325" r="23" fill="#18aa96"/>
<circle cx="440" cy="325" r="23" fill="#18aa96"/>
<circle cx="595" cy="325" r="23" fill="#18aa96"/>
<path d="M268 325l11 11 23-27M423 325l11 11 23-27M578 325l11 11 23-27" fill="none" stroke="#fff" stroke-width="8" stroke-linecap="round" stroke-linejoin="round"/>
</svg>